<svg width="14" height="17" viewBox="0 0 14 17" fill="none" xmlns="http://www.w3.org/2000/svg">
<path fill-rule="evenodd" clip-rule="evenodd" d="M13.3939 2.74002L8.18176 0.506237C7.42711 0.182817 6.57289 0.182817 5.81824 0.506237L0.606081 2.74002C0.238397 2.8976 0 3.25914 0 3.65917V8.91206C0 10.8498 0.935794 12.6682 2.51257 13.7945L5.83752 16.1694C6.53292 16.6661 7.46708 16.6661 8.16248 16.1694L11.4874 13.7945C13.0642 12.6682 14 10.8498 14 8.91206V3.65917C14 3.25914 13.7616 2.8976 13.3939 2.74002ZM10.7809 6.62469C11.1259 6.19343 11.056 5.56414 10.6247 5.21913C10.1934 4.87412 9.56414 4.94404 9.21913 5.37531L5.91708 9.50287L4.70711 8.29289C4.31658 7.90237 3.68342 7.90237 3.29289 8.29289C2.90237 8.68342 2.90237 9.31658 3.29289 9.70711L4.89788 11.3121C5.53005 11.9443 6.57136 11.8866 7.12985 11.1885L10.7809 6.62469Z" fill="#6300F7"/>
</svg>
